<svg xmlns="http://www.w3.org/2000/svg" viewBox="0 0 512 512">
  <path d="M0 0h512v512H0V0Z" fill="#FDFDFD"/>
  <path d="M197 94c2.875 1.563 2.875 1.563 5 4 1.71 6.417.173 11.63-1.535 17.926l-.83 3.19c-.586 2.243-1.177 4.485-1.773 6.725-1.237 4.645-2.445 9.298-3.654 13.95-.595 2.286-1.19 4.573-1.787 6.859-2.84 10.886-5.431 21.815-7.852 32.803a609.869 609.869 0 0 1-1.807 7.8l-1.137 4.872-.51 2.102c-.775 3.384-1.195 6.553-1.157 10.01L180 208l2.282.004c7.107.018 14.213.06 21.32.128 3.652.034 7.305.06 10.959.064 3.527.004 7.054.032 10.582.077 1.996.02 3.993.014 5.99.008 10.107.163 10.107.163 13.232 2.888 1.95 3.377 2.29 4.993 1.635 8.831-1.342 2.602-1.342 2.602-3.219 5.195l-2.078 2.922-2.203 3.008a5755.19 5755.19 0 0 0-4.219 5.883l-2.152 2.988c-2.802 3.954-5.481 7.983-8.155 12.025-3.26 4.919-6.59 9.79-9.911 14.667l-3.376 4.96c-2.573 3.78-5.148 7.56-7.723 11.34a12338.73 12338.73 0 0 0-28.279 41.701 8038.446 8038.446 0 0 0-17.528 26.02c-2.636 3.932-5.275 7.86-7.914 11.79a3952.716 3952.716 0 0 0-3.825 5.71 3915.75 3915.75 0 0 1-5.367 8.002l-1.588 2.385c-8.71 12.92-8.71 12.92-12.547 13.979-3.88.343-5.673-.408-8.916-2.637-2.561-3.762-2.331-5.414-2-9.938.708-3.425 1.654-6.766 2.625-10.125l.825-2.942c1.307-4.647 2.65-9.283 4.003-13.917 3.512-12.06 6.656-24.191 9.656-36.387A1266.586 1266.586 0 0 1 139 290a1057.46 1057.46 0 0 0 2.25-8.563l.523-1.955c1.007-3.934 1.294-7.437 1.227-11.482l-2.289-.011c-7.122-.038-14.243-.095-21.364-.173-3.661-.04-7.322-.072-10.983-.087-3.534-.015-7.068-.05-10.601-.097a596.919 596.919 0 0 0-6.01-.026l-3.7-.06-3.256-.027c-3.49-.647-4.67-1.722-6.797-4.519-1.022-5.295-.195-8.202 2.625-12.75 1.439-2.1 2.898-4.177 4.375-6.25 1.043-1.494 2.085-2.989 3.125-4.484 2.386-3.423 4.782-6.839 7.184-10.25 3.499-4.979 6.948-9.99 10.379-15.016.535-.785 1.07-1.57 1.623-2.378l3.166-4.642a3549.99 3549.99 0 0 1 7.148-10.417l1.361-1.98c2.204-3.204 4.41-6.407 6.616-9.61a7677.395 7677.395 0 0 0 21.467-31.39l5.626-8.251 1.84-2.696 3.68-5.395c3.05-4.468 6.091-8.94 9.118-13.423L170.76 119c1.45-2.144 2.898-4.29 4.343-6.438C188.173 93.252 188.173 93.252 197 94Z" fill="#FEC301"/>
  <path d="m254.506 247.353 2.68-.048 2.873.03 2.973-.014c2.074-.003 4.148.006 6.221.027 3.17.027 6.337 0 9.507-.032 2.016.004 4.032.01 6.049.02l2.866-.03c.888.015 1.775.03 2.69.047l2.352.012c3.795 1.056 5.03 2.37 7.283 5.635.749 4.259.672 8.475.631 12.79l.022 3.937c.018 3.559.005 7.116-.014 10.674-.017 3.726-.008 7.453-.003 11.18.005 6.257-.011 12.515-.04 18.773-.031 7.23-.031 14.46-.014 21.691.016 6.961.01 13.922-.008 20.883-.007 2.96-.006 5.92.002 8.88.009 4.135-.015 8.268-.043 12.403l.02 3.719c-.093 8.213-.093 8.213-2.305 12.329-2.51 1.944-3.613 2.372-6.754 2.388l-2.68.048-2.873-.03-2.973.014c-2.074.003-4.148-.006-6.221-.027-3.17-.027-6.337 0-9.507.032-2.016-.004-4.032-.01-6.049-.02l-2.866.03c-.888-.015-1.775-.03-2.69-.047l-2.352-.012c-3.795-1.056-5.03-2.37-7.283-5.635-.749-4.259-.672-8.475-.631-12.79l-.022-3.937c-.018-3.559-.005-7.116.014-10.674.017-3.726.008-7.453.003-11.18-.005-6.257.011-12.515.04-18.773.031-7.23.031-14.46.014-21.691-.016-6.961-.01-13.922.008-20.883.007-2.96.006-5.92-.002-8.88-.009-4.135.015-8.268.043-12.403l-.02-3.719c.093-8.213.093-8.213 2.305-12.329 2.51-1.944 3.613-2.372 6.754-2.388Z" fill="#098A3C"/>
  <path d="M234 145c3.045 1.943 5.454 4.454 8 7 1.596 1.468 3.2 2.926 4.813 4.375l2.57 2.316c4.429 3.907 9.019 7.604 13.617 11.309 1.11.913 2.22 1.827 3.328 2.742C300.613 200.845 339.771 221.112 381 237l.332-1.652c3.037-14.445 3.037-14.445 6.918-18.973C391 215 391 215 394.375 214.687c5.425 1.965 7.497 5.617 10.625 10.313l1.832 2.703a751.927 751.927 0 0 1 3.91 5.89c3.12 4.737 6.357 9.395 9.577 14.063.45.651.898 1.302 1.36 1.973l1.211 1.752c2.694 3.93 3.785 5.801 3.11 10.619-3.846 4.788-7.81 6.431-13.441 8.297l-2.439.846c-2.556.882-5.12 1.745-7.683 2.607a3624.95 3624.95 0 0 0-5.177 1.785c-17.88 6.149-17.88 6.149-24.26 5.465-2.5-2-2.5-2-4-5 0-7.267 2.756-14.152 5-21l-3.86-.75c-5.379-1.201-10.316-3.124-15.39-5.25l-2.895-1.204C312.96 231.43 278.317 209.009 246 182l-1.871-1.555A463.252 463.252 0 0 1 232 170l-1.656-1.478a261.444 261.444 0 0 1-4.656-4.334l-2.676-2.52c-2.49-3.302-2.898-5.564-3.012-9.668 3.367-6.269 6.816-8.516 14-7Z" fill="#0A8A3C"/>
  <path d="m327.414 286.482 2.62-.038 2.806.025 2.906-.012c2.027-.003 4.053.005 6.08.022 3.097.02 6.192 0 9.29-.026 1.97.003 3.94.008 5.911.016l2.8-.025c1.302.02 1.302.02 2.63.038l2.298.01c3.42.774 4.913 1.873 7.245 4.508.739 3.095.673 6.125.631 9.295l.022 2.85c.017 3.108-.003 6.215-.024 9.324 0 2.16.003 4.319.007 6.478.003 4.526-.012 9.052-.04 13.578-.033 5.804-.027 11.608-.008 17.412.01 4.46.001 8.918-.014 13.378-.005 2.14-.004 4.28.002 6.42.005 2.99-.015 5.98-.043 8.97l.02 2.686c-.06 3.826-.1 5.95-2.304 9.159-2.519 1.624-3.798 1.951-6.77 1.952l-2.69.028-2.883-.034-2.98.005a678.949 678.949 0 0 1-6.234-.034c-3.18-.03-6.36-.021-9.54-.008-2.02-.006-4.039-.015-6.058-.025l-2.882.008-2.69-.038-2.36-.016c-3.002-.539-4.157-1.034-6.162-3.388-.611-3.084-.546-6.138-.518-9.273l-.02-2.879c-.018-3.146-.007-6.291.007-9.438a6142.08 6142.08 0 0 0-.012-6.55c-.006-4.579.003-9.158.022-13.737.022-5.872.01-11.744-.015-17.617-.014-4.51-.01-9.02 0-13.53.003-2.165 0-4.33-.01-6.496-.01-3.026.006-6.051.028-9.077l-.024-2.72c.082-6.014.082-6.014 2.298-9.238 2.48-1.597 3.735-1.95 6.658-1.963Z" fill="#088A3B"/>
  <path d="m405.953 318.762 2.706-.025c1.893-.014 3.786-.024 5.68-.032 2.886-.017 5.771-.061 8.657-.105 1.84-.01 3.68-.019 5.52-.026l2.604-.053c5.583.02 8.591.835 12.88 4.479 1.347 2.694 1.157 4.822 1.193 7.84l.049 3.711c.011 1.344.022 2.687.031 4.031l.017 2.048c.026 3.579.046 7.157.06 10.735.013 2.96.041 5.919.082 8.878.05 3.575.074 7.15.081 10.725.007 1.361.022 2.722.046 4.082.177 10.655.177 10.655-2.455 15.284-4.468 2.398-8.293 2.365-13.295 2.295l-2.977.007a537.4 537.4 0 0 1-6.216-.04c-3.171-.033-6.34-.02-9.512 0-2.015-.007-4.03-.017-6.045-.03l-2.873.015-2.68-.048-2.35-.018c-3.104-.741-4.266-1.97-6.156-4.515-.508-2.884-.508-2.884-.518-6.266l-.038-3.842c.007-1.38.016-2.761.025-4.142-.003-1.42-.007-2.84-.012-4.259-.006-2.972.003-5.944.022-8.917.022-3.807.01-7.612-.015-11.419-.014-2.93-.01-5.861 0-8.792.003-1.403 0-2.806-.01-4.21-.01-1.962.009-3.925.028-5.887l.01-3.382c.622-3.53 1.745-4.678 4.508-6.884 3.385-1.692 7.228-1.207 10.953-1.238Z" fill="#0A8B3D"/>
</svg>